<svg width="63" height="64" viewBox="0 0 63 64" fill="none" xmlns="http://www.w3.org/2000/svg">
<path d="M40.2812 32.7768C42.2593 30.6303 43.3736 27.8153 43.4062 24.8824C43.4062 21.7168 42.1617 18.6808 39.9464 16.4423C37.7312 14.2038 34.7266 12.9463 31.5938 12.9463C28.4609 12.9463 25.4563 14.2038 23.2411 16.4423C21.0258 18.6808 19.7812 21.7168 19.7812 24.8824C19.8139 27.8153 20.9282 30.6303 22.9062 32.7768C20.152 34.1626 17.7819 36.2185 16.0091 38.7595C14.2363 41.3005 13.1163 44.247 12.75 47.3339C12.6588 48.1713 12.9006 49.0111 13.4222 49.6684C13.9438 50.3258 14.7024 50.7468 15.5312 50.8389C16.3601 50.931 17.1911 50.6867 17.8416 50.1597C18.4922 49.6326 18.9088 48.866 19 48.0286C19.3729 44.9692 20.8401 42.1532 23.1253 40.1111C25.4104 38.069 28.3557 36.9417 31.4062 36.9417C34.4568 36.9417 37.4021 38.069 39.6872 40.1111C41.9724 42.1532 43.4396 44.9692 43.8125 48.0286C43.8994 48.8382 44.2926 49.5827 44.9098 50.1064C45.5271 50.6301 46.3208 50.8925 47.125 50.8389H47.4688C48.2879 50.7437 49.0366 50.3251 49.5518 49.6745C50.0669 49.0239 50.3066 48.1939 50.2188 47.3654C49.8796 44.2948 48.7949 41.3564 47.0613 38.8113C45.3276 36.2662 42.9986 34.1933 40.2812 32.7768ZM31.5 30.5032C30.3998 30.5032 29.3244 30.1735 28.4096 29.5559C27.4949 28.9383 26.7819 28.0605 26.3609 27.0334C25.9399 26.0064 25.8298 24.8762 26.0444 23.7859C26.259 22.6956 26.7888 21.6941 27.5667 20.908C28.3446 20.1219 29.3358 19.5866 30.4148 19.3697C31.4938 19.1528 32.6123 19.2641 33.6287 19.6896C34.6451 20.115 35.5138 20.8354 36.125 21.7597C36.7363 22.6841 37.0625 23.7708 37.0625 24.8824C37.0625 26.3732 36.4765 27.8028 35.4333 28.8569C34.3901 29.911 32.9753 30.5032 31.5 30.5032ZM53.375 0.315369H9.625C7.1386 0.315369 4.75403 1.31343 2.99587 3.09C1.23772 4.86656 0.25 7.2761 0.25 9.78854V53.9967C0.25 56.5091 1.23772 58.9186 2.99587 60.6952C4.75403 62.4718 7.1386 63.4698 9.625 63.4698H53.375C55.8614 63.4698 58.246 62.4718 60.0041 60.6952C61.7623 58.9186 62.75 56.5091 62.75 53.9967V9.78854C62.75 7.2761 61.7623 4.86656 60.0041 3.09C58.246 1.31343 55.8614 0.315369 53.375 0.315369ZM56.5 53.9967C56.5 54.8341 56.1708 55.6373 55.5847 56.2295C54.9987 56.8217 54.2038 57.1544 53.375 57.1544H9.625C8.7962 57.1544 8.00134 56.8217 7.41529 56.2295C6.82924 55.6373 6.5 54.8341 6.5 53.9967V9.78854C6.5 8.95106 6.82924 8.14788 7.41529 7.55569C8.00134 6.9635 8.7962 6.63081 9.625 6.63081H53.375C54.2038 6.63081 54.9987 6.9635 55.5847 7.55569C56.1708 8.14788 56.5 8.95106 56.5 9.78854V53.9967Z" fill="#6D2BC1"/>
</svg>
