<svg width="63" height="55" viewBox="0 0 63 55" fill="none" xmlns="http://www.w3.org/2000/svg">
<path d="M35.5625 28.1875C37.2299 26.7442 38.5673 24.959 39.484 22.9532C40.4006 20.9474 40.875 18.7678 40.875 16.5625C40.875 12.4185 39.2288 8.44421 36.2985 5.51396C33.3683 2.5837 29.394 0.9375 25.25 0.9375C21.106 0.9375 17.1317 2.5837 14.2015 5.51396C11.2712 8.44421 9.625 12.4185 9.625 16.5625C9.62498 18.7678 10.0994 20.9474 11.016 22.9532C11.9327 24.959 13.2701 26.7442 14.9375 28.1875C10.5629 30.1684 6.85145 33.3673 4.24681 37.4017C1.64217 41.4361 0.2546 46.1353 0.25 50.9375C0.25 51.7663 0.57924 52.5612 1.16529 53.1472C1.75134 53.7333 2.5462 54.0625 3.375 54.0625C4.2038 54.0625 4.99866 53.7333 5.58471 53.1472C6.17076 52.5612 6.5 51.7663 6.5 50.9375C6.5 45.9647 8.47544 41.1956 11.9917 37.6792C15.5081 34.1629 20.2772 32.1875 25.25 32.1875C30.2228 32.1875 34.9919 34.1629 38.5083 37.6792C42.0246 41.1956 44 45.9647 44 50.9375C44 51.7663 44.3292 52.5612 44.9153 53.1472C45.5013 53.7333 46.2962 54.0625 47.125 54.0625C47.9538 54.0625 48.7487 53.7333 49.3347 53.1472C49.9208 52.5612 50.25 51.7663 50.25 50.9375C50.2454 46.1353 48.8578 41.4361 46.2532 37.4017C43.6485 33.3673 39.9371 30.1684 35.5625 28.1875ZM25.25 25.9375C23.3958 25.9375 21.5832 25.3877 20.0415 24.3575C18.4998 23.3274 17.2982 21.8632 16.5886 20.1502C15.8791 18.4371 15.6934 16.5521 16.0551 14.7335C16.4169 12.915 17.3098 11.2445 18.6209 9.93337C19.932 8.62226 21.6025 7.72937 23.421 7.36764C25.2396 7.0059 27.1246 7.19156 28.8377 7.90113C30.5507 8.6107 32.0149 9.81232 33.045 11.354C34.0752 12.8957 34.625 14.7083 34.625 16.5625C34.625 19.0489 33.6373 21.4335 31.8791 23.1916C30.121 24.9498 27.7364 25.9375 25.25 25.9375ZM59.3438 27.5L61.8437 25.0312C62.1351 24.7399 62.3662 24.394 62.5239 24.0133C62.6816 23.6326 62.7628 23.2246 62.7628 22.8125C62.7628 22.4004 62.6816 21.9924 62.5239 21.6117C62.3662 21.231 62.1351 20.8851 61.8437 20.5938C61.5524 20.3024 61.2065 20.0713 60.8258 19.9136C60.4451 19.7559 60.0371 19.6747 59.625 19.6747C59.2129 19.6747 58.8049 19.7559 58.4242 19.9136C58.0435 20.0713 57.6976 20.3024 57.4063 20.5938L54.9375 23.0938L52.4687 20.5938C52.1774 20.3024 51.8315 20.0713 51.4508 19.9136C51.0701 19.7559 50.6621 19.6747 50.25 19.6747C49.4178 19.6747 48.6197 20.0053 48.0313 20.5938C47.7399 20.8851 47.5088 21.231 47.3511 21.6117C47.1934 21.9924 47.1122 22.4004 47.1122 22.8125C47.1122 23.6447 47.4428 24.4428 48.0313 25.0312L50.5312 27.5L48.0313 29.9688C47.7383 30.2593 47.5059 30.6049 47.3472 30.9857C47.1886 31.3665 47.1069 31.775 47.1069 32.1875C47.1069 32.6 47.1886 33.0085 47.3472 33.3893C47.5059 33.7701 47.7383 34.1157 48.0313 34.4062C48.3218 34.6992 48.6674 34.9316 49.0482 35.0903C49.429 35.2489 49.8375 35.3306 50.25 35.3306C50.6625 35.3306 51.071 35.2489 51.4518 35.0903C51.8326 34.9316 52.1782 34.6992 52.4687 34.4062L54.9375 31.9062L57.4063 34.4062C57.6968 34.6992 58.0424 34.9316 58.4232 35.0903C58.804 35.2489 59.2125 35.3306 59.625 35.3306C60.0375 35.3306 60.446 35.2489 60.8268 35.0903C61.2076 34.9316 61.5532 34.6992 61.8437 34.4062C62.1367 34.1157 62.3691 33.7701 62.5278 33.3893C62.6864 33.0085 62.7681 32.6 62.7681 32.1875C62.7681 31.775 62.6864 31.3665 62.5278 30.9857C62.3691 30.6049 62.1367 30.2593 61.8437 29.9688L59.3438 27.5Z" fill="#6D2BC1"/>
</svg>
